<?xml version="1.0"?>
<svg xmlns:rdf="http://www.w3.org/1999/02/22-rdf-syntax-ns#" xmlns="http://www.w3.org/2000/svg" xmlns:cc="http://creativecommons.org/ns#" xmlns:xlink="http://www.w3.org/1999/xlink" xmlns:dc="http://purl.org/dc/elements/1.1/" xmlns:svg="http://www.w3.org/2000/svg" id="svg2" viewBox="0 0 744.09 1052.4">
  <defs id="defs4">
    <linearGradient id="linearGradient3451">
      <stop id="stop3453" stop-color="#acacac" offset="0"/>
      <stop id="stop3459" stop-color="#f0f0f0" offset=".5"/>
      <stop id="stop3455" stop-color="#acacac" offset="1"/>
    </linearGradient>
    <linearGradient id="linearGradient3360">
      <stop id="stop3362" stop-color="#d2d2d2" offset="0"/>
      <stop id="stop3369" stop-color="#f6f6f6" offset=".5"/>
      <stop id="stop3364" stop-color="#d2d2d2" offset="1"/>
    </linearGradient>
    <linearGradient id="linearGradient3332">
      <stop id="stop3334" stop-opacity=".63393" offset="0"/>
      <stop id="stop3336" stop-color="#3a3a3a" stop-opacity="0" offset="1"/>
    </linearGradient>
    <linearGradient id="linearGradient3364" x1="205.07" xlink:href="#linearGradient3332" gradientUnits="userSpaceOnUse" y1="695.98" gradientTransform="matrix(1.225 0 0 1.225 74.961 -172.87)" x2="230.44" y2="703.05"/>
    <linearGradient id="linearGradient3366" x1="205.07" xlink:href="#linearGradient3332" gradientUnits="userSpaceOnUse" y1="695.98" gradientTransform="matrix(-1.225 0 0 1.225 629.6 -170.9)" x2="226.2" y2="703.05"/>
    <radialGradient id="radialGradient3448" gradientUnits="userSpaceOnUse" cy="781.36" cx="328" gradientTransform="matrix(-1.1292 .025083 -.032244 -1.4516 723.58 1907.4)" r="31">
      <stop id="stop3380" stop-color="#d6d6d6" offset="0"/>
      <stop id="stop3382" stop-color="#828282" offset="1"/>
    </radialGradient>
    <linearGradient id="linearGradient3450" x1="309.5" gradientUnits="userSpaceOnUse" x2="309.5" y1="772.62" y2="783.62">
      <stop id="stop3402" stop-color="#828282" offset="0"/>
      <stop id="stop3408" stop-color="#9e9e9e" offset=".15909"/>
      <stop id="stop3410" stop-color="#a2a2a2" offset=".83523"/>
      <stop id="stop3404" stop-color="#828282" offset="1"/>
    </linearGradient>
    <linearGradient id="linearGradient3355" x1="152.74" gradientUnits="userSpaceOnUse" y1="1198" gradientTransform="translate(74.953 374.77)" x2="152.74" y2="1295.6">
      <stop id="stop3295" stop-color="#3a3a3a" offset="0"/>
      <stop id="stop3301" stop-color="#6d6d6d" offset=".5"/>
      <stop id="stop3297" stop-color="#3a3a3a" offset="1"/>
    </linearGradient>
    <linearGradient id="linearGradient3380" x1="395" gradientUnits="userSpaceOnUse" y1="1724.4" gradientTransform="matrix(.52889 0 0 .52889 97.939 35.975)" x2="419" y2="1724.4">
      <stop id="stop3376" offset="0"/>
      <stop id="stop3383" stop-color="#7b7b7b" offset=".5"/>
      <stop id="stop3378" offset="1"/>
    </linearGradient>
    <linearGradient id="linearGradient3483" x1="238.87" xlink:href="#linearGradient3360" gradientUnits="userSpaceOnUse" y1="1678.9" gradientTransform="matrix(.52889 0 0 .52889 112.22 68.237)" x2="263.13" y2="1678.9"/>
    <radialGradient id="radialGradient3444" gradientUnits="userSpaceOnUse" cy="439.69" cx="123.57" gradientTransform="matrix(-.99994 -.011193 .020833 -1.8611 237.97 1256.8)" r="8.4853">
      <stop id="stop3426" stop-color="#fff" offset="0"/>
      <stop id="stop3428" stop-color="#d9d9d9" offset="1"/>
    </radialGradient>
    <linearGradient id="linearGradient3664" x1="163.5" xlink:href="#linearGradient3451" gradientUnits="userSpaceOnUse" y1="444.86" gradientTransform="translate(284.69 -55.975)" x2="170.12" y2="448.24"/>
    <linearGradient id="linearGradient3667" x1="163.5" xlink:href="#linearGradient3451" gradientUnits="userSpaceOnUse" y1="444.86" gradientTransform="translate(276.69 -55.975)" x2="170.12" y2="448.24"/>
    <linearGradient id="linearGradient3670" x1="163.5" xlink:href="#linearGradient3451" gradientUnits="userSpaceOnUse" y1="444.86" gradientTransform="translate(292.44 -55.975)" x2="170.12" y2="448.24"/>
    <linearGradient id="linearGradient3673" x1="163.5" xlink:href="#linearGradient3451" gradientUnits="userSpaceOnUse" y1="444.86" gradientTransform="translate(308.19 -55.975)" x2="170.12" y2="448.24"/>
    <linearGradient id="linearGradient3676" x1="163.5" xlink:href="#linearGradient3451" gradientUnits="userSpaceOnUse" y1="444.86" gradientTransform="translate(300.13 -55.975)" x2="170.12" y2="448.24"/>
    <linearGradient id="linearGradient3679" x1="163.5" xlink:href="#linearGradient3451" gradientUnits="userSpaceOnUse" y1="444.86" gradientTransform="translate(253.19 -55.975)" x2="170.12" y2="448.24"/>
    <linearGradient id="linearGradient3682" x1="163.5" xlink:href="#linearGradient3451" gradientUnits="userSpaceOnUse" y1="444.86" gradientTransform="translate(206.19 -55.975)" x2="170.12" y2="448.24"/>
    <linearGradient id="linearGradient3685" x1="163.5" xlink:href="#linearGradient3451" gradientUnits="userSpaceOnUse" y1="444.86" gradientTransform="translate(198.19 -55.975)" x2="170.12" y2="448.24"/>
    <linearGradient id="linearGradient3688" x1="163.5" xlink:href="#linearGradient3451" gradientUnits="userSpaceOnUse" y1="444.86" gradientTransform="translate(268.94 -55.975)" x2="170.12" y2="448.24"/>
    <linearGradient id="linearGradient3691" x1="163.5" xlink:href="#linearGradient3451" gradientUnits="userSpaceOnUse" y1="444.86" gradientTransform="translate(260.88 -55.975)" x2="170.12" y2="448.24"/>
    <linearGradient id="linearGradient3694" x1="163.5" xlink:href="#linearGradient3451" gradientUnits="userSpaceOnUse" y1="444.86" gradientTransform="translate(213.94 -55.975)" x2="170.12" y2="448.24"/>
    <linearGradient id="linearGradient3697" x1="163.5" xlink:href="#linearGradient3451" gradientUnits="userSpaceOnUse" y1="444.86" gradientTransform="translate(245.69 -55.975)" x2="170.12" y2="448.24"/>
    <linearGradient id="linearGradient3700" x1="163.5" xlink:href="#linearGradient3451" gradientUnits="userSpaceOnUse" y1="444.86" gradientTransform="translate(237.69 -55.975)" x2="170.12" y2="448.24"/>
    <linearGradient id="linearGradient3703" x1="163.5" xlink:href="#linearGradient3451" gradientUnits="userSpaceOnUse" y1="444.86" gradientTransform="translate(229.69 -55.975)" x2="170.12" y2="448.24"/>
    <linearGradient id="linearGradient3706" x1="163.5" xlink:href="#linearGradient3451" gradientUnits="userSpaceOnUse" y1="444.86" gradientTransform="translate(221.63 -55.975)" x2="170.12" y2="448.24"/>
    <linearGradient id="linearGradient3709" x1="163.5" xlink:href="#linearGradient3451" gradientUnits="userSpaceOnUse" y1="444.86" gradientTransform="translate(173.44 -55.975)" x2="170.12" y2="448.24"/>
    <linearGradient id="linearGradient3712" x1="163.5" xlink:href="#linearGradient3451" gradientUnits="userSpaceOnUse" y1="444.86" gradientTransform="translate(126.44 -55.975)" x2="170.12" y2="448.24"/>
    <linearGradient id="linearGradient3715" x1="163.5" xlink:href="#linearGradient3451" gradientUnits="userSpaceOnUse" y1="444.86" gradientTransform="translate(118.44 -55.975)" x2="170.12" y2="448.24"/>
    <linearGradient id="linearGradient3718" x1="163.5" xlink:href="#linearGradient3451" gradientUnits="userSpaceOnUse" y1="444.86" gradientTransform="translate(190.08 -55.975)" x2="170.12" y2="448.24"/>
    <linearGradient id="linearGradient3721" x1="163.5" xlink:href="#linearGradient3451" gradientUnits="userSpaceOnUse" y1="444.86" gradientTransform="translate(181.13 -55.975)" x2="170.12" y2="448.24"/>
    <linearGradient id="linearGradient3724" x1="163.5" xlink:href="#linearGradient3451" gradientUnits="userSpaceOnUse" y1="444.86" gradientTransform="translate(134.19 -55.975)" x2="170.12" y2="448.24"/>
    <linearGradient id="linearGradient3727" x1="163.5" xlink:href="#linearGradient3451" gradientUnits="userSpaceOnUse" y1="444.86" gradientTransform="translate(165.94 -55.975)" x2="170.12" y2="448.24"/>
    <linearGradient id="linearGradient3730" x1="163.5" xlink:href="#linearGradient3451" gradientUnits="userSpaceOnUse" y1="444.86" gradientTransform="translate(157.94 -55.975)" x2="170.12" y2="448.24"/>
    <linearGradient id="linearGradient3733" x1="163.5" xlink:href="#linearGradient3451" gradientUnits="userSpaceOnUse" y1="444.86" gradientTransform="translate(149.94 -55.975)" x2="170.12" y2="448.24"/>
    <linearGradient id="linearGradient3736" x1="163.5" xlink:href="#linearGradient3451" gradientUnits="userSpaceOnUse" y1="444.86" gradientTransform="translate(141.88 -55.975)" x2="170.12" y2="448.24"/>
    <linearGradient id="linearGradient3739" x1="163.5" xlink:href="#linearGradient3451" gradientUnits="userSpaceOnUse" y1="444.86" gradientTransform="translate(94.945 -55.975)" x2="170.12" y2="448.24"/>
    <linearGradient id="linearGradient3742" x1="163.5" xlink:href="#linearGradient3451" gradientUnits="userSpaceOnUse" y1="444.86" gradientTransform="translate(47.945 -55.975)" x2="170.12" y2="448.24"/>
    <linearGradient id="linearGradient3745" x1="163.5" xlink:href="#linearGradient3451" gradientUnits="userSpaceOnUse" y1="444.86" gradientTransform="translate(39.945 -55.975)" x2="170.12" y2="448.24"/>
    <linearGradient id="linearGradient3748" x1="163.5" xlink:href="#linearGradient3451" gradientUnits="userSpaceOnUse" y1="444.86" gradientTransform="translate(110.69 -55.975)" x2="170.12" y2="448.24"/>
    <linearGradient id="linearGradient3751" x1="163.5" xlink:href="#linearGradient3451" gradientUnits="userSpaceOnUse" y1="444.86" gradientTransform="translate(102.63 -55.975)" x2="170.12" y2="448.24"/>
    <linearGradient id="linearGradient3754" x1="163.5" xlink:href="#linearGradient3451" gradientUnits="userSpaceOnUse" y1="444.86" gradientTransform="translate(55.695 -55.975)" x2="170.12" y2="448.24"/>
    <linearGradient id="linearGradient3757" x1="163.5" xlink:href="#linearGradient3451" gradientUnits="userSpaceOnUse" y1="444.86" gradientTransform="translate(87.445 -55.975)" x2="170.12" y2="448.24"/>
    <linearGradient id="linearGradient3760" x1="163.5" xlink:href="#linearGradient3451" gradientUnits="userSpaceOnUse" y1="444.86" gradientTransform="translate(79.445 -55.975)" x2="170.12" y2="448.24"/>
    <linearGradient id="linearGradient3763" x1="163.5" xlink:href="#linearGradient3451" gradientUnits="userSpaceOnUse" y1="444.86" gradientTransform="translate(71.445 -55.975)" x2="170.12" y2="448.24"/>
    <linearGradient id="linearGradient3766" x1="163.5" xlink:href="#linearGradient3451" gradientUnits="userSpaceOnUse" y1="444.86" gradientTransform="translate(63.382 -55.975)" x2="170.12" y2="448.24"/>
    <linearGradient id="linearGradient3771" x1="244.19" xlink:href="#linearGradient3360" gradientUnits="userSpaceOnUse" y1="1678.9" gradientTransform="matrix(.12631 -.68251 1.8899 .045614 -2859.7 489.84)" x2="268.4" y2="1677.3"/>
  </defs>
  <g id="layer1">
    <g id="g3773">
      <path id="path2551" fill="url(#linearGradient3771)" d="m495.14 383.93v15.83h-302.16v-16.6l302.16 0.77z"/>
      <path id="path2652" transform="matrix(1 0 0 .96137 66.962 -36.006)" fill="url(#radialGradient3444)" d="m130.11 443.84a8.4853 13.729 0 1 1 -16.97 0 8.4853 13.729 0 1 1 16.97 0z"/>
      <path id="path3432" transform="matrix(1 0 0 .96137 372.26 -36.006)" fill="url(#radialGradient3444)" d="m130.11 443.84a8.4853 13.729 0 1 1 -16.97 0 8.4853 13.729 0 1 1 16.97 0z"/>
      <path id="rect3448" fill="url(#linearGradient3766)" d="m230.26 383.01l8 0.13-8.63 16.62h-9l9.63-16.75z"/>
      <path id="path3461" fill="url(#linearGradient3763)" d="m238.32 383.01l8 0.13-8.63 16.62h-9l9.63-16.75z"/>
      <path id="path3466" fill="url(#linearGradient3760)" d="m246.32 383.01l8 0.13-8.63 16.62h-9l9.63-16.75z"/>
      <path id="path3470" fill="url(#linearGradient3757)" d="m254.32 383.01l8 0.13-8.63 16.62h-9l9.63-16.75z"/>
      <path id="path3474" fill="url(#linearGradient3754)" d="m222.57 383.01l8 0.13-8.63 16.62h-9l9.63-16.75z"/>
      <path id="path3478" fill="url(#linearGradient3751)" d="m269.51 383.01l8 0.13-8.63 16.62h-9l9.63-16.75z"/>
      <path id="path3480" fill="url(#linearGradient3748)" d="m277.57 383.01l8 0.13-8.63 16.62h-9l9.63-16.75z"/>
      <path id="path3482" fill="url(#linearGradient3745)" d="m206.82 383.01l8 0.13-8.63 16.62h-9l9.63-16.75z"/>
      <path id="path3484" fill="url(#linearGradient3742)" d="m214.82 383.01l8 0.13-8.63 16.62h-9l9.63-16.75z"/>
      <path id="path3486" fill="url(#linearGradient3739)" d="m261.82 383.01l8 0.13-8.63 16.62h-9l9.63-16.75z"/>
      <path id="path3498" fill="url(#linearGradient3736)" d="m308.76 383.01l8 0.13-8.63 16.62h-9l9.63-16.75z"/>
      <path id="path3500" fill="url(#linearGradient3733)" d="m316.82 383.01l8 0.13-8.63 16.62h-9l9.63-16.75z"/>
      <path id="path3502" fill="url(#linearGradient3730)" d="m324.82 383.01l8 0.13-8.63 16.62h-9l9.63-16.75z"/>
      <path id="path3504" fill="url(#linearGradient3727)" d="m332.82 383.01l8 0.13-8.63 16.62h-9l9.63-16.75z"/>
      <path id="path3506" fill="url(#linearGradient3724)" d="m301.07 383.01l8 0.13-8.63 16.62h-9l9.63-16.75z"/>
      <path id="path3508" fill="url(#linearGradient3721)" d="m348.01 383.01l8 0.13-8.63 16.62h-9l9.63-16.75z"/>
      <path id="path3510" fill="url(#linearGradient3718)" d="m356.95 383.01l8 0.13-8.62 16.62h-9l9.62-16.75z"/>
      <path id="path3512" fill="url(#linearGradient3715)" d="m285.32 383.01l8 0.13-8.63 16.62h-9l9.63-16.75z"/>
      <path id="path3514" fill="url(#linearGradient3712)" d="m293.32 383.01l8 0.13-8.63 16.62h-9l9.63-16.75z"/>
      <path id="path3516" fill="url(#linearGradient3709)" d="m340.32 383.01l8 0.13-8.63 16.62h-9l9.63-16.75z"/>
      <path id="path3538" fill="url(#linearGradient3706)" d="m388.51 383.01l8 0.13-8.63 16.62h-9l9.63-16.75z"/>
      <path id="path3540" fill="url(#linearGradient3703)" d="m396.57 383.01l8 0.13-8.63 16.62h-9l9.63-16.75z"/>
      <path id="path3542" fill="url(#linearGradient3700)" d="m404.57 383.01l8 0.13-8.63 16.62h-9l9.63-16.75z"/>
      <path id="path3544" fill="url(#linearGradient3697)" d="m412.57 383.01l8 0.13-8.63 16.62h-9l9.63-16.75z"/>
      <path id="path3546" fill="url(#linearGradient3694)" d="m380.82 383.01l8 0.13-8.63 16.62h-9l9.63-16.75z"/>
      <path id="path3548" fill="url(#linearGradient3691)" d="m427.76 383.01l8 0.13-8.63 16.62h-9l9.63-16.75z"/>
      <path id="path3550" fill="url(#linearGradient3688)" d="m435.82 383.01l8 0.13-8.63 16.62h-9l9.63-16.75z"/>
      <path id="path3552" fill="url(#linearGradient3685)" d="m365.07 383.01l8 0.13-8.63 16.62h-9l9.63-16.75z"/>
      <path id="path3554" fill="url(#linearGradient3682)" d="m373.07 383.01l8 0.13-8.63 16.62h-9l9.63-16.75z"/>
      <path id="path3556" fill="url(#linearGradient3679)" d="m420.07 383.01l8 0.13-8.63 16.62h-9l9.63-16.75z"/>
      <path id="path3558" fill="url(#linearGradient3676)" d="m467.01 383.01l8 0.13-8.63 16.62h-9l9.63-16.75z"/>
      <path id="path3560" fill="url(#linearGradient3673)" d="m475.07 383.01l8 0.13-8.63 16.62h-9l9.63-16.75z"/>
      <path id="path3566" fill="url(#linearGradient3670)" d="m459.32 383.01l8 0.13-8.63 16.62h-9l9.63-16.75z"/>
      <path id="path3572" fill="url(#linearGradient3667)" d="m443.57 383.01l8 0.13-8.63 16.62h-9l9.63-16.75z"/>
      <path id="path3574" fill="url(#linearGradient3664)" d="m451.57 383.01l8 0.13-8.63 16.62h-9l9.63-16.75z"/>
    </g>
    <g id="g3408" transform="matrix(1.1372 .11949 -.11949 1.1372 54.84 -112.41)">
      <g id="g3459" transform="matrix(.99928 -.037949 .037949 .99928 -8.2717 9.7304)">
        <path id="path3357" fill="url(#linearGradient3483)" d="m245.5 998.75l-6.94-84.64 12.83-0.49-5.89 85.13z"/>
        <g id="g3248" transform="matrix(.52889 0 0 .70010 317.87 -80.778)">
          <g id="g3253" transform="translate(-412.95 87.681)">
            <path id="rect2453" fill="#c8c8c8" d="m246 318.36h88l-22 248-16 790.04h-50l-16-790.04 16-248z"/>
            <path id="path3226" fill-opacity=".43137" fill="#f7f7f7" d="m246.98 318.92l4.82 5h74.71l-22 248-15.38 775.68 5.2 6.3 16.18-786.98 22-248h-85.53z"/>
            <path id="path3231" fill-opacity=".29412" fill="#353535" d="m246.89 319.7l-16 246.06 16 790.04h48l-12.12-3.6-30.94-2.1-16-790 14.21-236.16-3.15-4.24z"/>
          </g>
        </g>
        <g id="g3303" transform="matrix(.52887 -.0055416 .0055416 .52887 89.23 37.392)">
          <rect id="rect3263" height="97.581" width="39.598" y="1572.8" x="207.89" fill="url(#linearGradient3355)"/>
          <rect id="rect3265" y="1575.6" width="36" x="209.45" height="2"/>
          <rect id="rect3267" y="1582.4" width="36" x="209.45" height="2"/>
          <rect id="rect3269" y="1602.7" width="36" x="209.45" height="2"/>
          <rect id="rect3271" y="1609.5" width="36" x="209.45" height="2"/>
          <rect id="rect3273" y="1623" width="36" x="209.45" height="2"/>
          <rect id="rect3275" y="1629.8" width="36" x="209.45" height="2"/>
          <rect id="rect3277" y="1636.6" width="36" x="209.45" height="2"/>
          <rect id="rect3279" y="1650.1" width="36" x="209.45" height="2"/>
          <rect id="rect3281" y="1656.9" width="36" x="209.45" height="2"/>
          <rect id="rect3283" y="1643.3" width="36" x="209.45" height="2"/>
          <rect id="rect3285" y="1616.2" width="36" x="209.45" height="2"/>
          <rect id="rect3287" y="1595.9" width="36" x="209.45" height="2"/>
          <rect id="rect3289" y="1589.2" width="36" x="209.45" height="2"/>
          <rect id="rect3291" y="1663.6" width="36" x="209.45" height="2"/>
        </g>
      </g>
    </g>
    <g id="g3385" transform="matrix(1.1409 -.077027 .077027 1.1409 10.162 -59.51)">
      <g id="g3436">
        <path id="rect3371" fill="url(#linearGradient3380)" d="m306.85 910.43h12.7v59.23l-12.7 15.87v-75.1z"/>
        <g id="g3258" transform="matrix(.52889 0 0 .70010 -32.208 -34.092)">
          <path id="path3241" fill="#c8c8c8" d="m676.9 339.36h-88l22 248 16 790.04h50l16-790.04-16-248z"/>
          <path id="path3236" fill="#dcdcdc" d="m592.88 340.67l12.15 8.27 64.32-0.29 15.5 251-14.72 766.25 5.09 8.2 16-785.08-16-248-82.34-0.35z"/>
          <path id="path3243" fill="#9d9d9d" d="m590.7 341.32l21.65 244.46 16 790.02h46.82l-10.68-5.2-30.15-1-17.14-788.63-21.09-229.63-5.41-10.02z"/>
        </g>
        <g id="g3322" transform="matrix(-.52887 -.0055416 -.0055416 .52887 466.27 37.392)">
          <rect id="rect3324" height="97.581" width="39.598" y="1572.8" x="207.89" fill="url(#linearGradient3355)"/>
          <rect id="rect3326" y="1575.6" width="36" x="209.45" height="2"/>
          <rect id="rect3328" y="1582.4" width="36" x="209.45" height="2"/>
          <rect id="rect3330" y="1602.7" width="36" x="209.45" height="2"/>
          <rect id="rect3332" y="1609.5" width="36" x="209.45" height="2"/>
          <rect id="rect3334" y="1623" width="36" x="209.45" height="2"/>
          <rect id="rect3336" y="1629.8" width="36" x="209.45" height="2"/>
          <rect id="rect3338" y="1636.6" width="36" x="209.45" height="2"/>
          <rect id="rect3340" y="1650.1" width="36" x="209.45" height="2"/>
          <rect id="rect3342" y="1656.9" width="36" x="209.45" height="2"/>
          <rect id="rect3345" y="1643.3" width="36" x="209.45" height="2"/>
          <rect id="rect3347" y="1616.2" width="36" x="209.45" height="2"/>
          <rect id="rect3349" y="1595.9" width="36" x="209.45" height="2"/>
          <rect id="rect3351" y="1589.2" width="36" x="209.45" height="2"/>
          <rect id="rect3353" y="1663.6" width="36" x="209.45" height="2"/>
        </g>
      </g>
    </g>
    <g id="g3346" transform="matrix(.52889 0 0 .52889 159.87 -259.65)">
      <rect id="rect3288" ry="11" height="160" width="46" y="528.36" x="329.12" fill="#3a3a3a"/>
      <path id="rect3290" fill="#3a3a3a" d="m329.12 660.86h46l20.25 57h-86.25l20-57z"/>
      <g id="g3317" transform="translate(-.75241)">
        <rect id="rect3293" y="539.61" width="2.5" x="332" height="121.5"/>
        <rect id="rect3295" y="539.61" width="2.5" x="335.92" height="121.5"/>
        <rect id="rect3297" y="539.61" width="2.5" x="339.85" height="121.5"/>
        <rect id="rect3299" y="539.61" width="2.5" x="343.77" height="121.5"/>
        <rect id="rect3301" y="539.61" width="2.5" x="347.7" height="121.5"/>
        <rect id="rect3303" y="539.61" width="2.5" x="351.62" height="121.5"/>
        <rect id="rect3305" y="539.61" width="2.5" x="355.55" height="121.5"/>
        <rect id="rect3307" y="539.61" width="2.5" x="359.48" height="121.5"/>
        <rect id="rect3309" y="539.61" width="2.5" x="363.4" height="121.5"/>
        <rect id="rect3311" y="539.61" width="2.5" x="367.33" height="121.5"/>
        <rect id="rect3313" y="539.61" width="2.5" x="371.25" height="121.5"/>
      </g>
      <path id="path3330" fill="url(#linearGradient3364)" d="m329.36 660.41h45.16l19.89 55.97h-84.69l19.64-55.97z"/>
      <path id="path3340" fill="url(#linearGradient3366)" d="m375.2 662.38h-45.16l-19.88 55.97h84.68l-19.64-55.97z"/>
    </g>
    <path id="rect3344" fill="#3a3a3a" d="m345.65 102.84c-26.32 0-49.19 8.46-49.19 8.46v105.12c0 4.3 4.68 6.48 11.37 6.48v74.57s14.02 5.82 38.34 5.82c24.86 0 38.35-5.82 38.35-5.82v-74.57c6.53 0 11.37-4.16 11.37-6.48v-105.12s-23.4-8.46-50.24-8.46z"/>
    <g id="g3412" transform="matrix(.52889 0 0 .52889 156.17 -244.85)">
      <path id="path3376" transform="matrix(.66129 0 0 .66129 98.548 251.9)" fill="url(#radialGradient3448)" d="m350 795.36a31 31 0 1 1 -62 0 31 31 0 1 1 62 0z"/>
      <path id="path3388" fill="url(#linearGradient3450)" d="m289.69 772.62c-0.45 1.68-0.69 3.44-0.69 5.26 0 1.99 0.31 3.92 0.84 5.74h39.32c0.53-1.82 0.84-3.75 0.84-5.74 0-1.82-0.24-3.58-0.69-5.26h-39.62z"/>
    </g>
    <g id="g3416" transform="matrix(.45804 .26445 -.26445 .45804 436.43 -271.57)">
      <path id="path3418" transform="matrix(.66129 0 0 .66129 98.548 251.9)" fill="url(#radialGradient3448)" d="m350 795.36a31 31 0 1 1 -62 0 31 31 0 1 1 62 0z"/>
      <path id="path3420" fill="url(#linearGradient3450)" d="m289.69 772.62c-0.45 1.68-0.69 3.44-0.69 5.26 0 1.99 0.31 3.92 0.84 5.74h39.32c0.53-1.82 0.84-3.75 0.84-5.74 0-1.82-0.24-3.58-0.69-5.26h-39.62z"/>
    </g>
    <path id="path3463" fill-opacity=".28758" fill="#efefef" d="m346.2 101.71c-26.32 0-49.19 8.47-49.19 8.47v2.74c6.88-2.21 25.36-7.46 46.2-7.46 26.85 0 50.24 8.47 50.24 8.47v105.11c0 0.07 0-1.55-0.01-1.48 1.88-1.3 2.35-1.34 3.01-2.27v-105.11s-23.4-8.47-50.25-8.47z"/>
    <path id="path3456" fill-opacity=".28758" fill="#efefef" d="m385.07 222.59c-0.94 0.2-1.94 0.33-2.99 0.33v72.63c1.96-0.66 2.99 1.49 2.99 1.49v-74.45z"/>
    <path id="path3472" fill-opacity=".33987" d="m298.5 110.68c-1.8 0.58-2.99 0.99-2.99 0.99v105.12c0 4.3 4.68 6.48 11.37 6.48v74.57s14.02 5.82 38.35 5.82c24.86 0 38.34-5.82 38.34-5.82l-2.43-1.73c-5.23 1.68-14.83 3.81-32.92 3.81-24.33 0-38.35-5.82-38.35-5.82v-74.57c-6.68 0-11.37-2.17-11.37-6.48v-102.37z"/>
    <path id="path3465" fill-opacity=".34" d="m395.58 216.53c-3.22 1.97-7.85 3.65-13.22 2.53v3.44c7.57 0.45 12.4-3.07 13.22-5.97z"/>
    <g id="g2563" transform="matrix(.52889 -.00061142 .00032332 1.0002 225.49 -1231.1)">
      <rect id="rect2565" height="97.581" width="39.598" y="1572.8" x="207.89" fill="url(#linearGradient3355)"/>
      <rect id="rect2567" y="1575.6" width="36" x="209.45" height="2"/>
      <rect id="rect2569" y="1582.4" width="36" x="209.45" height="2"/>
      <rect id="rect2571" y="1602.7" width="36" x="209.45" height="2"/>
      <rect id="rect2573" y="1609.5" width="36" x="209.45" height="2"/>
      <rect id="rect2575" y="1623" width="36" x="209.45" height="2"/>
      <rect id="rect2577" y="1629.8" width="36" x="209.45" height="2"/>
      <rect id="rect2579" y="1636.6" width="36" x="209.45" height="2"/>
      <rect id="rect2581" y="1650.1" width="36" x="209.45" height="2"/>
      <rect id="rect2583" y="1656.9" width="36" x="209.45" height="2"/>
      <rect id="rect2585" y="1643.3" width="36" x="209.45" height="2"/>
      <rect id="rect2587" y="1616.2" width="36" x="209.45" height="2"/>
      <rect id="rect2589" y="1595.9" width="36" x="209.45" height="2"/>
      <rect id="rect2591" y="1589.2" width="36" x="209.45" height="2"/>
      <rect id="rect2593" y="1663.6" width="36" x="209.45" height="2"/>
    </g>
  </g>
  <metadata>
    <rdf:RDF>
      <cc:Work>
        <dc:format>image/svg+xml</dc:format>
        <dc:type rdf:resource="http://purl.org/dc/dcmitype/StillImage"/>
        <cc:license rdf:resource="http://creativecommons.org/licenses/publicdomain/"/>
        <dc:publisher>
          <cc:Agent rdf:about="http://openclipart.org/">
            <dc:title>Openclipart</dc:title>
          </cc:Agent>
        </dc:publisher>
        <dc:title>Compass 2</dc:title>
        <dc:date>2011-03-11T15:40:31</dc:date>
        <dc:description>A (pair of) drawing compass(es).  Similar to the other in my collection except this one includes the adjusting wheel.</dc:description>
        <dc:source>http://openclipart.org/detail/126763/compass-2-by-kevie</dc:source>
        <dc:creator>
          <cc:Agent>
            <dc:title>kevie</dc:title>
          </cc:Agent>
        </dc:creator>
        <dc:subject>
          <rdf:Bag>
            <rdf:li>clip art</rdf:li>
            <rdf:li>clipart</rdf:li>
            <rdf:li>design</rdf:li>
            <rdf:li>drawing</rdf:li>
            <rdf:li>education</rdf:li>
            <rdf:li>equipment</rdf:li>
            <rdf:li>graphics</rdf:li>
            <rdf:li>school</rdf:li>
            <rdf:li>technical</rdf:li>
          </rdf:Bag>
        </dc:subject>
      </cc:Work>
      <cc:License rdf:about="http://creativecommons.org/licenses/publicdomain/">
        <cc:permits rdf:resource="http://creativecommons.org/ns#Reproduction"/>
        <cc:permits rdf:resource="http://creativecommons.org/ns#Distribution"/>
        <cc:permits rdf:resource="http://creativecommons.org/ns#DerivativeWorks"/>
      </cc:License>
    </rdf:RDF>
  </metadata>
</svg>
